General                          : ChattChitto Rg - MOvies [R2L]
===========
Complete name                    : Legendary 2010 LiMiTED 720p BRRip H264 [ChattChitto RG]
Format                           : MPEG-4
Format profile                   : Base Media
Codec ID                         : isom
File size                        : 2.05 GiB
Duration                         : 1h 47mn
Overall bit rate                 : 2 735 Kbps
Encoded date                     : UTC 2011-04-08 09:38:34

Video
===========
ID                               : 1
Format                           : AVC
Format/Info                      : Advanced Video Codec
Format profile                   : High@L4.1
Format settings, CABAC           : Yes
Format settings, ReFrames        : 4 frames
Codec ID                         : avc1
Codec ID/Info                    : Advanced Video Coding
Duration                         : 1h 47mn
Bit rate mode                    : Variable
Bit rate                         : 2 400 Kbps
Maximum bit rate                 : 20.2 Mbps
Width                            : 1 280 pixels
Height                           : 688 pixels
Display aspect ratio             : 1.860
Frame rate mode                  : Constant
Frame rate                       : 23.976 fps
Color space                      : YUV
Chroma subsampling               : 4:2:0
Bit depth                        : 8 bits
Scan type                        : Progressive
Bits/(Pixel*Frame)               : 0.114
Stream size                      : 1.80 GiB (88%)
Writing library                  : x264 core 114 r1913 5fd3dce
Encoded date                     : UTC 2011-04-07 16:26:16

Audio
===========
ID                               : 2
Format                           : AAC
Format/Info                      : Advanced Audio Codec
Format profile                   : LC
Codec ID                         : 40
Duration                         : 1h 47mn
Bit rate mode                    : Variable
Bit rate                         : 332 Kbps
Maximum bit rate                 : 432 Kbps
Channel(s)                       : 6 channels
Channel positions                : Front: L C R, Side: L R, LFE
Sampling rate                    : 48.0 KHz
Compression mode                 : Lossy
Stream size                      : 254 MiB (12%)
Encoded date                     : UTC 2011-04-08 09:39:00

Subtitles                        : English


----------------------------------------------------
IMDB Link: http://www.imdb.com/title/tt1563704/
----------------------------------------------------



Screen Shots:
==============    
http://chattchitto.net/chattchittorg/movies/brrip/2011/legendary/1.png 
http://chattchitto.net/chattchittorg/movies/brrip/2011/legendary/2.png 
http://chattchitto.net/chattchittorg/movies/brrip/2011/legendary/3.png 
http://chattchitto.net/chattchittorg/movies/brrip/2011/legendary/4.png 
http://chattchitto.net/chattchittorg/movies/brrip/2011/legendary/5.png 
http://chattchitto.net/chattchittorg/movies/brrip/2011/legendary/6.png 
http://chattchitto.net/chattchittorg/movies/brrip/2011/legendary/7.png



ScreenShots Comparison:
=========================  
http://screenshotcomparison.com/comparison/42098



Plot:
======
A book-smart teenager joins his school's wrestling team as a way to reunite his surviving family members, who split apart after the death of his father, a college wrestling legend, 10 years ago.



Release Info:
==============
original name .... : Legendary 2010 LiMiTED 720p BRRip H264 [ChattChitto RG]
ripper.............: AVCHD
encoder............: Recalled2Life (R2L)
video codec........: H264/.MP4
video bitrate......: 2400
audio codec........: AAC-LC
aspect ratio.......: 1.860
resolution.........: 1280 x 688
genre..............: Drama | Sport
runtime............: 1h 47mn
language...........: English
rating.............: PG-13
subtitles..........: English
sample.............: Yes
2ch Audio..........: 2ch Audio for XBox Viewers
Compatibility .....: XBox | PS3 | WD Live



Source:
========
Legendary.2010.720p.LiMiTED.x264.BluRay-AVCHD  THANKS!!



Notes:
=======
ChattChitto RG Encourages Burning this Film with ConvertXtoDVD and Playing with VLC media player.
XBox 360 | PS3 | WD Live - Compatible 
Enhanced for your viewing pleasure ;)